<svg xmlns="http://www.w3.org/2000/svg" viewBox="0 0 64 64" role="img" aria-label="Receipt">
  <defs>
    <linearGradient id="paper" x1="0" y1="0" x2="0" y2="1">
      <stop offset="0" stop-color="#ffffff"/>
      <stop offset="1" stop-color="#eef2ff"/>
    </linearGradient>
  </defs>
  <!-- background -->
  <rect x="0" y="0" width="64" height="64" rx="14" fill="#0b1220"/>
  <!-- receipt sheet -->
  <path
    d="M20 14h24a3 3 0 0 1 3 3v32l-3-2-3 2-3-2-3 2-3-2-3 2-3-2-3 2-3-2-3 2V17a3 3 0 0 1 3-3Z"
    fill="url(#paper)"
    stroke="#c7d2fe"
    stroke-width="1.5"
    stroke-linejoin="round"
  />
  <!-- lines -->
  <path d="M25 24h14" stroke="#334155" stroke-width="2" stroke-linecap="round" opacity="0.9"/>
  <path d="M25 30h18" stroke="#334155" stroke-width="2" stroke-linecap="round" opacity="0.7"/>
  <path d="M25 36h18" stroke="#334155" stroke-width="2" stroke-linecap="round" opacity="0.7"/>
  <path d="M25 42h10" stroke="#334155" stroke-width="2" stroke-linecap="round" opacity="0.85"/>
  <!-- total pill -->
  <rect x="36" y="40" width="10.5" height="6.5" rx="3.25" fill="#ff5f5f" opacity="0.95"/>
  <path d="M38.5 44h5.5" stroke="#0b1220" stroke-width="2" stroke-linecap="round"/>
</svg>

